PathFileType	4	(X/Y/Z)	9_coords_data.trc
DataRate	CameraRate	NumFrames	NumMarkers	Units	OrigDataRate	OrigDataStartFrame	OrigNumFrames
30.0	30.0	6	21	m	30.0	1	41
Frame#	Time	THUMB_TIP	THUMB_IP	THUMB_MCP	THUMB_CMC	INDEX_TIP	INDEX_DIP	INDEX_PIP	INDEX_MCP	MIDDLE_TIP	MIDDLE_DIP	MIDDLE_PIP	MIDDLE_MCP	RING_TIP	RING_DIP	RING_PIP	RING_MCP	PINKY_TIP	PINKY_DIP	PINKY_PIP	PINKY_MCP	WRIST
X1	Y1	Z1	X2	Y2	Z2	X3	Y3	Z3	X4	Y4	Z4	X5	Y5	Z5	X6	Y6	Z6	X7	Y7	Z7	X8	Y8	Z8	X9	Y9	Z9	X10	Y10	Z10	X11	Y11	Z11	X12	Y12	Z12	X13	Y13	Z13	X14	Y14	Z14	X15	Y15	Z15	X16	Y16	Z16	X17	Y17	Z17	X18	Y18	Z18	X19	Y19	Z19	X20	Y20	Z20	X21	Y21	Z21
0	-2.749317978547796e-18	0.47933421518931485	-0.01689113102039852	-0.17071784755162123	0.48445448789342405	-0.022383938083213928	-0.14900122078763595	0.47661519224589677	-0.029131203604714773	-0.11964411173832679	0.4747126694495092	-0.03400184256154859	-0.07534346520623425	0.5668244773815272	0.030287574251435134	-0.1721944733930355	0.5568034048988141	0.019471091225283566	-0.16167868520378476	0.5408647983703071	0.00902634395814006	-0.14528118815530405	0.5148173689032238	-0.009022856881414687	-0.11683133997977352	0.5918416553130004	0.04244910228820198	-0.14433723708606772	0.5803030021971696	0.030405693376571286	-0.13727920718674158	0.5580784484360747	0.01812810000799303	-0.12297048742583871	0.5227451600457977	0.004182615645615617	-0.099449643086653	0.5970121143842152	0.040775014992937175	-0.1142123063351998	0.583877685147078	0.031501612289943304	-0.1060581190107176	0.5644622918452684	0.02011493042180823	-0.09540138602307385	0.5343214481222012	-0.0019108398422273964	-0.0798734815302724	0.5997075384423399	0.025383628198725083	-0.062163016886918276	0.5837874050580253	0.019960025537847814	-0.05897964018873236	0.5644715237041591	0.01213801559572747	-0.05642525043993929	0.5345162092885204	-0.007922375760198719	-0.05535600401964336	0.4622830810018609	-0.023011742144276925	-0.051989820119430985
1	0.03333333333333339	0.4795283388124535	-0.017172403930845404	-0.17093381243074013	0.4843359001272989	-0.022522528427816324	-0.14911034977993898	0.47679453340658495	-0.029046899353232458	-0.11962509292144619	0.4755631400303313	-0.03322053996492025	-0.07522966078707682	0.5670108568136927	0.03048099384586378	-0.17226607700856006	0.5569495558139839	0.01994413051590127	-0.161507604377236	0.5411294661856519	0.00928319706524161	-0.14513448326022982	0.5148738188380004	-0.00840441276179582	-0.11664895123145674	0.5919189682781099	0.04256378802836719	-0.14432625588943404	0.5801903954026683	0.03074857577900092	-0.1371959446895017	0.5581398686028364	0.01817451623821742	-0.1228754403508015	0.5235964580962144	0.0023377889526932094	-0.09937865800821388	0.5964066791798571	0.04167672172068315	-0.11477101606003481	0.5834292301818168	0.0322311746038203	-0.1065632479610698	0.5639886842669153	0.020876010345479146	-0.09591874711806658	0.5339826623339882	-0.001193013800059206	-0.08019241076708061	0.5999314504609559	0.025697072562001044	-0.06263689960728314	0.5841310539366156	0.01994811635603433	-0.059428010046158164	0.5646995298316567	0.012431536266492293	-0.05683399506626707	0.5342473553333595	-0.006885491705644342	-0.05620078921588656	0.4622830810018608	-0.023011742144276925	-0.051989820119430985
2	0.06666666666666676	0.4796755581740778	-0.01743387582346223	-0.17105836331738533	0.4842389253275139	-0.022664340314251352	-0.14915361676707029	0.47692091044134755	-0.028991482842026794	-0.1195692640521796	0.4761864644667848	-0.03263193258349306	-0.0751159434249159	0.5671499227825232	0.030583348598309468	-0.17232274499307532	0.5570603839636461	0.020265472975076526	-0.1613800465577775	0.5413309995570929	0.009442281284012477	-0.14502600055046272	0.5149140564658662	-0.007960739769530933	-0.116514317507808	0.5918605852888805	0.04270304443426731	-0.14426370116180537	0.5799882995747448	0.031064780955672444	-0.13708041116872194	0.5580710252063606	0.018267013946560606	-0.1227535205834811	0.5241909517592104	0.0009828173869268486	-0.09931114242972605	0.595933480997424	0.04234686272970878	-0.11519417185868253	0.5830773271439865	0.03277067387721744	-0.1069469956656961	0.5636195952089329	0.021435917274875482	-0.09631215012336397	0.5337318166286065	-0.0006786346677004618	-0.0804254223950841	0.600058445887304	0.02593127776917381	-0.06298166944828554	0.5843500117850196	0.019943118533455872	-0.05975877524867668	0.5648362954010491	0.012650384656556324	-0.05714287683958641	0.5340253354290282	-0.00609744613542762	-0.05684785616629506	0.4622830810018609	-0.023011742144276925	-0.051989820119430985
3	0.10000000000000014	0.4797920486366487	-0.017674718778433185	-0.1711287103380733	0.4841728556124827	-0.02280753646518907	-0.1491636764697859	0.4770077343521648	-0.028966785884858348	-0.11950655786545683	0.47662446906239087	-0.0322139341138058	-0.07501836689193109	0.5672509168732606	0.030624462273587727	-0.1723667235993413	0.5571420157948376	0.020468295532329317	-0.16129141791008766	0.5414769958182917	0.009531962013971218	-0.14495086738969032	0.5149415480035072	-0.007659394546436715	-0.11642082422670552	0.5917608584420194	0.04282176549608574	-0.14418998066716304	0.5797842499653865	0.03131392855551174	-0.1369698325837368	0.5579613724710843	0.018358652633216788	-0.12264040853230024	0.5245912178918242	3.2479780988525775e-05	-0.09925810554592746	0.5955778000696768	0.0428305096914271	-0.1155018018689476	0.5828111825150213	0.03315903257573316	-0.10722677881074594	0.5633426970721366	0.02183585395819787	-0.0965992824190468	0.5335538171597093	-0.0003248395609288801	-0.08059156145963697	0.6001306164783536	0.02609246227895956	-0.06321173537920632	0.5844869214613304	0.01993961441034131	-0.05998415589606432	0.564916344886456	0.012803698039027811	-0.05736056121155353	0.5338555328336287	-0.0055295420225558445	-0.05731915513361319	0.462283081001861	-0.023011742144276925	-0.051989820119430985
4	0.13333333333333353	0.479887504476885	-0.017890556470094965	-0.17116760041709084	0.4841404619645089	-0.02294656017918839	-0.14915966595921626	0.47706502827726016	-0.028969530133016397	-0.11945306616939466	0.47691176237114696	-0.03194267318957178	-0.07494433747571838	0.5673212176367405	0.030624336277051967	-0.17240031914455406	0.5571993592250539	0.020577996720853475	-0.16123702913598892	0.5415746503778793	0.009572144819264938	-0.14490456054237677	0.5149584848877823	-0.0074738137990242315	-0.11636246665655015	0.5916736270138003	0.04289979973327607	-0.14412880065135775	0.5796258165894427	0.03148143756083288	-0.13688509515778224	0.5578617929908801	0.018427397043915494	-0.12255579465203886	0.5248417516039068	-0.0005843293732596955	-0.09922386274657818	0.5953258897610597	0.04316144331148658	-0.11571097420368437	0.5826208893567643	0.033424814931476865	-0.10741754110776802	0.5631466562379426	0.022106552665846935	-0.09679533970126997	0.5334359257748812	-9.912425015667914e-05	-0.08070493131448919	0.600174609334471	0.026187687893123646	-0.06334234851045906	0.5845705131305616	0.019933662124622664	-0.06011754722261675	0.5649625505832585	0.012899769508141534	-0.057497589512391256	0.5337379504929017	-0.005152603956303903	-0.05763763413914125	0.462283081001861	-0.023011742144276925	-0.051989820119430985
5	0.1666666666666669	0.4799660500074052	-0.0180757356488338	-0.17118821302827442	0.4841389612400767	-0.02307447134026852	-0.14915189179873567	0.47709970690983006	-0.02899374891077766	-0.11941586900621393	0.4770770230890071	-0.03179414477036602	-0.07489567955834786	0.5673668502009379	0.030596037288456612	-0.172425729075939	0.5572365104059449	0.020614539424733347	-0.1612120804264373	0.5416309750454087	0.009576804757452262	-0.14488279653136849	0.5149662411788891	-0.007381336955893603	-0.1163337248922105	0.5916237576530099	0.04293199173806034	-0.1440913552561225	0.5795320398344694	0.03156829664646965	-0.13683485513125848	0.5577957093742163	0.01846614606076613	-0.12250742904866352	0.5249753668390832	-0.0009283738209695525	-0.09920881030347833	0.5951643246219195	0.04336622769716647	-0.1158374785898309	0.5824967759415385	0.033590046572788745	-0.10753329331651584	0.5630204447548041	0.022272131943229856	-0.09691456877245469	0.5333670970416472	2.4382367043052078e-05	-0.08077649446980284	0.6002060553261751	0.026224626615112046	-0.06338942542376735	0.5846195389219871	0.01992250245102889	-0.060173257299670824	0.5649892439935593	0.012946471579383001	-0.0575658575794924	0.53366861328664	-0.004937417447466674	-0.05782673378789027	0.4622830810018608	-0.023011742144276925	-0.051989820119430985
